.
 
http://www.scenetime.com    -  Hottest private tracker on the net. !!!

New release on http://www.scenetime.com

        Seed back for speed


...................................NFO:.................................................








































          
          
              
              
                    
                    
                    
                    

Dream.Home.2010.UNCUT.DVDRiP.XviD-SiC

Poster:
[img]http://img692.imageshack.us/img692/388/001jld.jpg[/img]

IMDB Link: 
http://www.imdb.com/title/tt1407972/

Description:
Cheng Li-sheung is a young, upwardly mobile professional finally ready to invest in her first home. But when the deal falls through, she is forced to keep her dream alive - even if it means keeping her would-be neighbors dead.  

MediaInfo:
General
Complete name                    : E:\Dream Home Final\VIDEO_TS\Work\Dream.Home.2010.UNCUT.DVDRiP.XviD.AC3-SiC.avi
Format                           : AVI
Format/Info                      : Audio Video Interleave
File size                        : 1.54 GiB
Duration                         : 1h 32mn
Overall bit rate                 : 2 389 Kbps

Video
ID                               : 0
Format                           : MPEG-4 Visual
Format profile                   : Advanced Simple@L5
Format settings, BVOP            : 1
Format settings, QPel            : No
Format settings, GMC             : No warppoints
Format settings, Matrix          : Default (H.263)
Codec ID                         : XVID
Codec ID/Hint                    : XviD
Duration                         : 1h 32mn
Bit rate                         : 1 933 Kbps
Width                            : 720 pixels
Height                           : 304 pixels
Display aspect ratio             : 2.35:1
Frame rate                       : 25.000 fps
Color space                      : YUV
Chroma subsampling               : 4:2:0
Bit depth                        : 8 bits
Scan type                        : Progressive
Compression mode                 : Lossy
Bits/(Pixel*Frame)               : 0.353
Stream size                      : 1.25 GiB (81%)
Writing library                  : XviD 1.2.1 (UTC 2008-12-04)

Audio
ID                               : 1
Format                           : AC-3
Format/Info                      : Audio Coding 3
Mode extension                   : CM (complete main)
Codec ID                         : 2000
Duration                         : 1h 32mn
Bit rate mode                    : Constant
Bit rate                         : 448 Kbps
Channel(s)                       : 6 channels
Channel positions                : Front: L C R, Side: L R, LFE
Sampling rate                    : 48.0 KHz
Bit depth                        : 16 bits
Compression mode                 : Lossy
Stream size                      : 296 MiB (19%)
Alignment                        : Aligned on interleaves
Interleave, duration             : 64 ms (1.60 video frames)
Interleave, preload duration     : 192 ms
Title                            : Dreamhome T80 3_2ch 448Kbps DELAY 0ms

Screenshots:
[img]http://img829.imageshack.us/img829/4160/vlcsnap2011091018h05m26.png[/img]
[img]http://img831.imageshack.us/img831/801/vlcsnap2011091018h05m43.png[/img]
[img]http://img707.imageshack.us/img707/2145/vlcsnap2011091018h06m11.png[/img]
[img]http://img94.imageshack.us/img94/4949/vlcsnap2011091018h06m16.png[/img]
[img]http://img9.imageshack.us/img9/9063/vlcsnap2011091018h06m22.png[/img]


Note : Ripped from a custom DVD9 from another tracker(Thanks much!) This is the uncut version of Dream Home from the french DVD for proper Aspect Ratio, and combined with 
the proper subtitles from the UK DVD. Cantonese audio with external English and French subtitles. Insane flick, too. 

Source: Custom DVD9.

Enjoy!

Respects to CaptainHomey, Cyanide, CM8, Rx, THC, ELEKTRI4KA, 
Killerhz, PA, YeFsTe, BoxSlots, MrRep and everyone in the struggle...